<svg width="206" height="205" viewBox="0 0 206 205" fill="none" xmlns="http://www.w3.org/2000/svg">
<path d="M0 68.3308C0 36.1195 0 20.0136 10.0092 10.0068C20.0184 0 36.1281 0 68.3472 0H136.694C168.913 0 185.023 0 195.032 10.0068C205.041 20.0136 205.042 36.1195 205.042 68.3308V136.662C205.042 168.873 205.041 184.979 195.032 194.986C185.023 204.992 168.913 204.992 136.694 204.992H68.3472C36.1281 204.992 20.0184 204.992 10.0092 194.986C0 184.979 0 168.873 0 136.662V68.3308Z" fill="#1E98E2"/>
<path d="M205.042 123.367C182.682 160.591 146.411 189.523 101.147 201.649C96.1166 202.997 91.0788 204.109 86.045 204.992H68.3472C36.1281 204.992 20.0184 204.992 10.0092 194.986C0 184.979 0 168.873 0 136.662V68.3308C0 36.1195 0 20.0136 10.0092 10.0068C20.0184 0 36.1281 0 68.3472 0H136.694C168.913 0 185.023 0 195.032 10.0068C205.041 20.0136 205.042 36.1195 205.042 68.3308V123.367Z" fill="#0C1E40"/>
<path fill-rule="evenodd" clip-rule="evenodd" d="M49.3981 48.4997H155.643L170.089 84.6068L153.781 92.7589L140.966 86.3529L128.151 92.7589L115.335 86.3529L102.52 92.7589L89.7052 86.3529L76.8901 92.7589L64.075 86.3529L54.0098 91.3842V150.996H71.9006C73.0044 148.138 75.7784 146.111 79.026 146.111C83.243 146.111 86.6616 149.529 86.6616 153.745C86.6616 157.961 83.243 161.379 79.026 161.379C75.7784 161.379 73.0044 159.352 71.9006 156.494H48.51V91.1044L34.9329 84.6544L49.3981 48.4997ZM51.5555 86.4635L41.9568 81.9037L53.1218 53.9982H151.919L163.103 81.9513L153.781 86.6112L140.966 80.2052L128.151 86.6112L115.335 80.2052L102.52 86.6112L89.7052 80.2052L76.8901 86.6112L64.075 80.2052L51.5555 86.4635ZM75.662 153.745C75.662 151.888 77.168 150.382 79.026 150.382C80.8837 150.382 82.3899 151.888 82.3899 153.745C82.3899 155.603 80.8837 157.108 79.026 157.108C77.168 157.108 75.662 155.603 75.662 153.745Z" fill="white"/>
<path fill-rule="evenodd" clip-rule="evenodd" d="M146.145 104.632C146.145 107.879 148.173 110.653 151.031 111.756V150.996H124.493V109.357H80.5479V112.106V137.73H86.0477V114.855H118.993V156.494H156.531V111.756C159.389 110.653 161.416 107.879 161.416 104.632C161.416 100.416 157.998 96.9986 153.781 96.9986C149.564 96.9986 146.145 100.416 146.145 104.632ZM153.781 101.269C151.923 101.269 150.417 102.775 150.417 104.632C150.417 106.49 151.923 107.996 153.781 107.996C155.639 107.996 157.145 106.49 157.145 104.632C157.145 102.775 155.639 101.269 153.781 101.269Z" fill="white"/>
</svg>
